<?xml version="1.0" standalone="no"?>
<!DOCTYPE svg PUBLIC "-//W3C//DTD SVG 20010904//EN"
 "http://www.w3.org/TR/2001/REC-SVG-20010904/DTD/svg10.dtd">
<svg version="1.0" xmlns="http://www.w3.org/2000/svg"
 width="999.000000pt" height="700.000000pt" viewBox="0 0 999.000000 700.000000"
 preserveAspectRatio="xMidYMid meet">

<g transform="translate(0.000000,700.000000) scale(0.100000,-0.100000)"
fill="#000000" stroke="none">
<path d="M5260 5768 c-178 -162 -1416 -1278 -1472 -1327 l-37 -32 -271 136
c-150 75 -273 135 -274 133 -444 -629 -850 -1198 -855 -1198 -3 0 -96 58 -206
129 -110 71 -200 129 -201 128 -1 -2 -662 -906 -1553 -2125 -210 -288 -381
-526 -378 -528 2 -2 2245 -3 4985 -2 l4981 3 -78 110 c-97 138 -491 698 -1201
1705 -304 432 -553 786 -554 787 -1 1 -147 -46 -325 -104 -180 -59 -326 -102
-331 -97 -7 8 -145 256 -766 1383 l-212 384 -238 59 -239 59 -303 269 c-167
149 -306 270 -310 269 -4 0 -77 -63 -162 -141z m484 -192 c154 -136 289 -252
301 -257 11 -4 110 -27 220 -49 110 -23 204 -42 209 -44 6 -1 -39 -29 -100
-61 -60 -32 -110 -59 -111 -60 -2 -1 15 -53 36 -116 206 -604 348 -1031 340
-1019 -5 8 -67 114 -137 236 -70 122 -185 323 -257 448 l-130 226 -190 132
-190 131 -145 335 c-176 407 -165 379 -143 361 9 -8 143 -126 297 -263z
m-1812 -1312 c75 -47 140 -90 146 -97 5 -7 76 -223 158 -481 l148 -469 286
-306 c157 -169 526 -565 820 -880 294 -315 543 -584 554 -598 15 -20 -1461
1105 -1520 1158 -22 21 -39 25 -29 8 16 -25 504 -1203 500 -1207 -2 -2 -11 11
-21 30 -9 18 -181 320 -381 671 l-364 638 -85 397 c-47 218 -109 513 -139 655
-30 143 -57 263 -60 267 -3 5 -99 57 -213 115 l-207 106 -130 161 c-71 88
-134 167 -138 175 -14 23 526 -252 675 -343z m1433 44 c26 -51 98 -192 161
-313 l113 -220 569 -656 569 -657 8 -198 c4 -110 10 -227 14 -261 l6 -62 310
-323 c171 -178 346 -360 389 -406 l79 -82 -468 2 -468 3 -139 295 -140 295 42
298 c23 163 40 303 37 311 -3 8 -211 307 -462 666 -250 358 -467 668 -480 688
-17 26 -51 140 -110 369 -47 183 -85 335 -85 338 0 16 13 -5 55 -87z m1940
-578 c92 -162 171 -298 175 -303 3 -4 137 37 296 92 159 55 298 102 309 106
11 4 -80 -92 -203 -212 l-223 -218 16 -195 c8 -107 15 -206 15 -220 0 -16 28
-64 72 -125 39 -55 174 -242 298 -415 125 -173 320 -445 434 -603 114 -159
201 -285 193 -280 -7 4 -283 265 -613 580 l-599 572 -93 403 c-98 421 -247
1065 -257 1108 -10 42 4 18 180 -290z m-5070 -214 l150 -96 164 -238 164 -237
422 -185 423 -185 -139 -3 c-77 -1 -139 -5 -139 -7 0 -5 617 -1055 648 -1103
8 -12 12 -22 9 -22 -5 0 -582 627 -803 873 -68 75 -129 124 -428 339 -191 139
-352 259 -357 267 -15 25 -369 752 -369 757 0 3 24 -11 53 -29 28 -19 120 -77
202 -131z m-806 -1517 c-94 -239 -174 -440 -177 -448 -3 -8 52 16 122 53 70
37 130 65 133 62 3 -3 -22 -122 -56 -264 -33 -142 -61 -262 -61 -265 0 -4
-151 -7 -336 -7 -206 0 -334 4 -332 9 5 16 873 1299 876 1296 1 -1 -75 -197
-169 -436z m1258 -626 l90 -243 -128 0 c-96 0 -129 3 -129 13 -1 36 66 485 71
479 3 -4 47 -116 96 -249z"/>
</g>
</svg>
